# xmcd CD database file
#
# Track frame offsets:
#	150
#	18713
#	30930
#	50952
#	62681
#	78545
#	93381
#	121809
#	154479
#	171281
#	195861
#	214832
#	237116
#	254467
#
# Disc length: 3719 seconds
#
# Revision: 0
# Processed by: cddbd v1.5.1PL0 Copyright (c) Steve Scherf et al.
# Submitted via: CDex 1.51
#
DISCID=bc0e850e
DTITLE=Nuthin`But - Live Under The Bridge
DYEAR=1994
DGENRE=Blues
TTITLE0=Congo Square
TTITLE1=Lousiana Blues
TTITLE2=Help Me
TTITLE3=Too Drunk for Love
TTITLE4=Smuggler´s Blues
TTITLE5=Treat Her Right
TTITLE6=Groove Real Slow
TTITLE7=Born Under A Bad Sign
TTITLE8=You Give Me Nothin`
TTITLE9=Small Town Boy
TTITLE10=Superstition
TTITLE11=Blues For Al and Peggy
TTITLE12=Three B´s
TTITLE13=Cowcatcher Blues
EXTD=YEAR: 1994
EXTT0=
EXTT1=
EXTT2=
EXTT3=
EXTT4=
EXTT5=
EXTT6=
EXTT7=
EXTT8=
EXTT9=
EXTT10=
EXTT11=
EXTT12=
EXTT13=
PLAYORDER=
